<svg width="92" height="26" viewBox="0 0 92 26" fill="none" xmlns="http://www.w3.org/2000/svg">
<path d="M3.15039 2.95508V12.3242H12.8008V14.4863H3.15039V26H0.882812V0.792969H15.0684V2.95508H3.15039ZM18.6719 26V0.792969H20.834V26H18.6719ZM26.4414 3.67578V0.792969H28.9551V3.67578H26.4414ZM26.6172 26V8H28.7793V26H26.6172ZM43.1582 26L39.3086 19.0918L35.459 26H33.1211L38.166 17L33.1211 8H35.459L39.3086 14.9082L43.1582 8H45.4961L40.4688 17L45.4961 26H43.1582ZM72.3027 19.8125C72.3027 20.668 72.1387 21.4707 71.8105 22.2207C71.4941 22.9707 71.0547 23.627 70.4922 24.1895C69.9297 24.752 69.2676 25.1973 68.5059 25.5254C67.7559 25.8418 66.9531 26 66.0977 26H58.1172V0.792969H66.0977C66.9531 0.792969 67.7559 0.957031 68.5059 1.28516C69.2676 1.60156 69.9297 2.04102 70.4922 2.60352C71.0547 3.16602 71.4941 3.82813 71.8105 4.58984C72.1387 5.33984 72.3027 6.14258 72.3027 6.99805V19.8125ZM70.0352 6.99805C70.0352 6.43555 69.9297 5.91406 69.7188 5.43359C69.5078 4.94141 69.2148 4.51367 68.8398 4.15039C68.4766 3.77539 68.0488 3.48242 67.5566 3.27148C67.0762 3.06055 66.5547 2.95508 65.9922 2.95508H60.3848V23.8379H65.9922C66.5547 23.8379 67.0762 23.7324 67.5566 23.5215C68.0488 23.3105 68.4766 23.0234 68.8398 22.6602C69.2148 22.2969 69.5078 21.875 69.7188 21.3945C69.9297 20.9023 70.0352 20.375 70.0352 19.8125V6.99805ZM91.8848 19.8125C91.8848 20.668 91.7207 21.4707 91.3926 22.2207C91.0762 22.9707 90.6367 23.627 90.0742 24.1895C89.5117 24.752 88.8496 25.1973 88.0879 25.5254C87.3379 25.8418 86.5352 26 85.6797 26H77.6992V0.792969H85.6797C86.5352 0.792969 87.3379 0.957031 88.0879 1.28516C88.8496 1.60156 89.5117 2.04102 90.0742 2.60352C90.6367 3.16602 91.0762 3.82813 91.3926 4.58984C91.7207 5.33984 91.8848 6.14258 91.8848 6.99805V7.24414C91.8848 7.8418 91.8027 8.41602 91.6387 8.9668C91.4863 9.50586 91.2637 10.0098 90.9707 10.4785C90.6777 10.9473 90.332 11.375 89.9336 11.7617C89.5352 12.1367 89.0898 12.4531 88.5977 12.7109C89.0898 12.9688 89.5352 13.291 89.9336 13.6777C90.332 14.0527 90.6777 14.4805 90.9707 14.9609C91.2637 15.4297 91.4863 15.9395 91.6387 16.4902C91.8027 17.0293 91.8848 17.5977 91.8848 18.1953V19.8125ZM89.6172 17.8262C89.6172 17.2637 89.5117 16.7422 89.3008 16.2617C89.0898 15.7695 88.7969 15.3418 88.4219 14.9785C88.0586 14.6152 87.6309 14.3281 87.1387 14.1172C86.6582 13.9062 86.1367 13.8008 85.5742 13.8008H79.9668V23.8379H85.5742C86.1367 23.8379 86.6582 23.7324 87.1387 23.5215C87.6309 23.3105 88.0586 23.0234 88.4219 22.6602C88.7969 22.2969 89.0898 21.875 89.3008 21.3945C89.5117 20.9023 89.6172 20.375 89.6172 19.8125V17.8262ZM89.6172 6.99805C89.6172 6.43555 89.5117 5.91406 89.3008 5.43359C89.0898 4.94141 88.7969 4.51367 88.4219 4.15039C88.0586 3.77539 87.6309 3.48242 87.1387 3.27148C86.6582 3.06055 86.1367 2.95508 85.5742 2.95508H79.9668V11.6387H85.5742C86.1367 11.6387 86.6582 11.5332 87.1387 11.3223C87.6309 11.1113 88.0586 10.8242 88.4219 10.4609C88.7969 10.0859 89.0898 9.6582 89.3008 9.17773C89.5117 8.68555 89.6172 8.1582 89.6172 7.5957V6.99805Z" fill="white"/>
</svg>
